<?xml version="1.0" encoding="UTF-8"?>
<svg id="Camada_1" data-name="Camada 1" xmlns="http://www.w3.org/2000/svg" viewBox="0 0 572.54 558.38">
  <defs>
    <style>
      .cls-1 {
        fill: #ededed;
      }
    </style>
  </defs>
  <path class="cls-1" d="M479.18,290.58c34.1-3.96,62.37,14.48,67.04,34.94,5.5,24.11-19.69,60.16-63.47,62.76,22.45-8.82,36.13-31.34,33.52-54.2-2.31-20.17-16.94-37.38-37.08-43.5Z"/>
  <path class="cls-1" d="M154.81.46c-2.18-3.42-51.6,12.61-53.07,34.9-1.85,28.16,74.83,36.54,84.83,77.9,4.93,20.39-5.89,50.69-62.91,96.82,73.76-38.39,89.33-66.08,87.48-85.21-3.91-40.44-87.36-60.42-82.49-94.63,2.56-17.98,27.73-27.31,26.15-29.78Z"/>
  <path class="cls-1" d="M284.58,4.1c-2.18-3.42-51.6,12.61-53.07,34.9-1.85,28.16,74.83,36.54,84.83,77.9,4.93,20.39-5.89,50.69-62.91,96.82,73.76-38.39,89.33-66.08,87.48-85.21-3.91-40.44-87.36-60.42-82.49-94.63,2.56-17.98,27.73-27.31,26.15-29.78Z"/>
  <path class="cls-1" d="M204.9,12.2c-1.15-2.95-49.89,6.82-50.57,20.88-.82,17.09,70.41,17.45,88.37,58.06,9.79,22.15.29,48.45-11,69.19,32.83-27.75,38.63-46.81,35.98-59.86-7.62-37.44-89.3-47.71-86.99-69.38,1.22-11.48,25.02-16.82,24.21-18.9Z"/>
  <path class="cls-1" d="M435.14,265.97c-273.94,6.07-372.56-12.35-377.26-41.54-2.74-17.03,26.31-38.83,24.25-40.83-3.32-3.21-81.36,50.44-74.17,78.63,6.93,27.16,96.04,42.71,427.18,3.74Z"/>
  <path class="cls-1" d="M2.79,269.18c-11.5,118.78,57.84,223.78,154.71,251.03,89.92,25.3,178.43-23.48,226.83-79.88,57.98-67.56,58.97-146.71,58.48-169.02,54.57-25.14,109.51-5.56,124.98,29.22,10.57,23.77,2.51,53.97-13.9,73.48-20.31,24.14-54.78,33.88-88.25,24.6,42.24,1.96,77.4-17.19,87.71-45.93.62-1.74,9.43-29.2-7.13-52.13-16.02-22.18-49.03-30.73-80.59-18.54,1.38,26.57.34,76.17-24.25,130.51-10.88,24.05-40.69,89.93-114.46,125.16-3.94,1.88-100.92,46.29-196.83-1.07C39.78,492.02-13.04,384.11,2.79,269.18Z"/>
</svg>